<svg width="42" height="41" viewBox="0 0 42 41" fill="none" xmlns="http://www.w3.org/2000/svg">
<path d="M27.6503 5.21285V11.8967M14.2827 5.21285V11.8967M7.59888 18.5805H34.3341M7.59888 11.8967C7.59888 11.0103 7.95097 10.1603 8.5777 9.53357C9.20442 8.90684 10.0544 8.55475 10.9408 8.55475H30.9922C31.8785 8.55475 32.7285 8.90684 33.3553 9.53357C33.982 10.1603 34.3341 11.0103 34.3341 11.8967V31.948C34.3341 32.8344 33.982 33.6844 33.3553 34.3111C32.7285 34.9379 31.8785 35.2899 30.9922 35.2899H10.9408C10.0544 35.2899 9.20442 34.9379 8.5777 34.3111C7.95097 33.6844 7.59888 32.8344 7.59888 31.948V11.8967ZM14.2827 25.2643H17.6246V28.6061H14.2827V25.2643Z" stroke="#7259FF" stroke-width="3.43473" stroke-linecap="round" stroke-linejoin="round"/>
</svg>
