<svg xmlns="http://www.w3.org/2000/svg" xmlns:xlink="http://www.w3.org/1999/xlink" width="88.426" height="86" viewBox="0 0 88.426 86">
  <defs>
    <linearGradient id="linear-gradient" x1="0.919" y1="0.234" x2="0.111" y2="0.822" gradientUnits="objectBoundingBox">
      <stop offset="0" stop-color="#b5c3ff"/>
      <stop offset="1" stop-color="#fff" stop-opacity="0.008"/>
    </linearGradient>
  </defs>
  <g id="Group_18" data-name="Group 18" transform="translate(1809.351 2486)">
    <ellipse id="Ellipse_2" data-name="Ellipse 2" cx="38.5" cy="43" rx="38.5" ry="43" transform="translate(-1805 -2486)" fill="url(#linear-gradient)"/>
    <g id="pos-terminal_1_" data-name="pos-terminal (1)" transform="translate(-1808 -2477.419)">
      <path id="Path_39" data-name="Path 39" d="M49.477,352.853H10.839A3.6,3.6,0,0,1,7.5,349.037v-8.371a3.6,3.6,0,0,1,3.339-3.816H68.1a3.6,3.6,0,0,1,3.339,3.816v12.187H55.154" transform="translate(-7.701 -290.432)" fill="none" stroke="#2150df" stroke-linecap="round" stroke-linejoin="round" stroke-miterlimit="10" stroke-width="2.3"/>
      <path id="Path_40" data-name="Path 40" d="M81.887,93.553h29.02a5.942,5.942,0,0,1,6.139,5.724V125.9a5.942,5.942,0,0,1-6.139,5.724h-44.5A5.942,5.942,0,0,1,60.27,125.9V99.277a5.942,5.942,0,0,1,6.139-5.724h8.519" transform="translate(-56.109 -93.553)" fill="none" stroke="#2150df" stroke-linecap="round" stroke-linejoin="round" stroke-miterlimit="10" stroke-width="2.3"/>
      <rect id="Rectangle_5" data-name="Rectangle 5" width="27.169" height="8.349" transform="translate(19.804 38.069)" fill="none" stroke="#2150df" stroke-linecap="round" stroke-linejoin="round" stroke-miterlimit="10" stroke-width="2.3"/>
      <path id="Path_41" data-name="Path 41" d="M408.007,368.854H395.144a4.663,4.663,0,0,0-4.663,4.663v5.234h19.327a2.862,2.862,0,0,0,2.862-2.862v-2.372A4.663,4.663,0,0,0,408.007,368.854Z" transform="translate(-326.745 -316.33)" fill="none" stroke="#2150df" stroke-linecap="round" stroke-linejoin="round" stroke-miterlimit="10" stroke-width="2.3"/>
      <line id="Line_1" data-name="Line 1" x2="5.203" transform="translate(30.416 54.42)" fill="none" stroke="#2150df" stroke-linecap="round" stroke-linejoin="round" stroke-miterlimit="10" stroke-width="2.3"/>
      <path id="Path_42" data-name="Path 42" d="M416.708,282.817a8.94,8.94,0,0,1,12.181-.217" transform="translate(-347.968 -244.68)" fill="none" stroke="#2150df" stroke-linecap="round" stroke-linejoin="round" stroke-miterlimit="10" stroke-width="2.3"/>
      <path id="Path_43" data-name="Path 43" d="M419,253.187a14.086,14.086,0,0,0-18.285.216" transform="translate(-335.022 -220.09)" fill="none" stroke="#2150df" stroke-linecap="round" stroke-linejoin="round" stroke-miterlimit="10" stroke-width="2.3"/>
      <path id="Path_44" data-name="Path 44" d="M428.625,310.516a6.025,6.025,0,0,1,3.92-1.352,6.117,6.117,0,0,1,3.714,1.183" transform="translate(-357.611 -268.028)" fill="none" stroke="#2150df" stroke-linecap="round" stroke-linejoin="round" stroke-miterlimit="10" stroke-width="2.3"/>
      <path id="Path_45" data-name="Path 45" d="M113.154,148.474H95.567a1.908,1.908,0,0,1-1.908-1.908v-3a1.908,1.908,0,0,1,1.908-1.908h17.588a1.908,1.908,0,0,1,1.908,1.908v3A1.908,1.908,0,0,1,113.154,148.474Z" transform="translate(-79.298 -132.481)" fill="none" stroke="#2150df" stroke-linecap="round" stroke-linejoin="round" stroke-miterlimit="10" stroke-width="2.3"/>
      <line id="Line_2" data-name="Line 2" x2="20.869" transform="translate(14.376 22.824)" fill="none" stroke="#2150df" stroke-linecap="round" stroke-linejoin="round" stroke-miterlimit="10" stroke-width="2.3"/>
      <line id="Line_3" data-name="Line 3" x2="20.869" transform="translate(14.376 28.891)" fill="none" stroke="#2150df" stroke-linecap="round" stroke-linejoin="round" stroke-miterlimit="10" stroke-width="2.3"/>
      <line id="Line_4" data-name="Line 4" x1="11.079" transform="translate(40.502 22.824)" fill="none" stroke="#2150df" stroke-linecap="round" stroke-linejoin="round" stroke-miterlimit="10" stroke-width="2.3"/>
      <line id="Line_5" data-name="Line 5" x1="11.079" transform="translate(40.502 28.891)" fill="none" stroke="#2150df" stroke-linecap="round" stroke-linejoin="round" stroke-miterlimit="10" stroke-width="2.3"/>
    </g>
  </g>
</svg>
