<svg width="41" height="41" viewBox="0 0 41 41" fill="none" xmlns="http://www.w3.org/2000/svg">
<path d="M28.5281 15.9067V12.5648C28.5281 11.6785 28.176 10.8284 27.5492 10.2017C26.9225 9.57499 26.0725 9.2229 25.1862 9.2229H8.47667C7.59034 9.2229 6.74031 9.57499 6.11359 10.2017C5.48686 10.8284 5.13477 11.6785 5.13477 12.5648V22.5905C5.13477 23.4768 5.48686 24.3268 6.11359 24.9536C6.74031 25.5803 7.59034 25.9324 8.47667 25.9324H11.8186M11.8186 19.2486C11.8186 18.3623 12.1707 17.5122 12.7974 16.8855C13.4241 16.2588 14.2741 15.9067 15.1605 15.9067H31.87C32.7563 15.9067 33.6063 16.2588 34.233 16.8855C34.8598 17.5122 35.2119 18.3623 35.2119 19.2486V29.2743C35.2119 30.1606 34.8598 31.0106 34.233 31.6374C33.6063 32.2641 32.7563 32.6162 31.87 32.6162H15.1605C14.2741 32.6162 13.4241 32.2641 12.7974 31.6374C12.1707 31.0106 11.8186 30.1606 11.8186 29.2743V19.2486ZM20.1733 24.2614C20.1733 25.1478 20.5254 25.9978 21.1521 26.6245C21.7789 27.2513 22.6289 27.6033 23.5152 27.6033C24.4015 27.6033 25.2516 27.2513 25.8783 26.6245C26.505 25.9978 26.8571 25.1478 26.8571 24.2614C26.8571 23.3751 26.505 22.5251 25.8783 21.8984C25.2516 21.2716 24.4015 20.9195 23.5152 20.9195C22.6289 20.9195 21.7789 21.2716 21.1521 21.8984C20.5254 22.5251 20.1733 23.3751 20.1733 24.2614Z" stroke="#7259FF" stroke-width="3.3419" stroke-linecap="round" stroke-linejoin="round"/>
</svg>
