<svg width="41" height="41" viewBox="0 0 41 41" fill="none" xmlns="http://www.w3.org/2000/svg">
<path d="M23.8547 5.88101V12.5648C23.8547 13.008 24.0308 13.433 24.3441 13.7464C24.6575 14.0597 25.0825 14.2358 25.5257 14.2358H32.2095M23.8547 5.88101H12.1581C11.2717 5.88101 10.4217 6.2331 9.79498 6.85983C9.16825 7.48656 8.81616 8.33658 8.81616 9.22291V32.6162C8.81616 33.5025 9.16825 34.3526 9.79498 34.9793C10.4217 35.606 11.2717 35.9581 12.1581 35.9581H28.8676C29.7539 35.9581 30.6039 35.606 31.2306 34.9793C31.8574 34.3526 32.2095 33.5025 32.2095 32.6162V14.2358M23.8547 5.88101L32.2095 14.2358M15.5 15.9067H17.1709M15.5 22.5905H25.5257M15.5 29.2743H25.5257" stroke="#7259FF" stroke-width="3.3419" stroke-linecap="round" stroke-linejoin="round"/>
</svg>
