<svg width="41" height="41" viewBox="0 0 41 41" fill="none" xmlns="http://www.w3.org/2000/svg">
<path d="M30.6523 25.5379C31.5387 25.5379 32.3887 25.89 33.0154 26.5168C33.6421 27.1435 33.9942 27.9935 33.9942 28.8798C33.9942 29.7662 33.6421 30.6162 33.0154 31.2429C32.3887 31.8696 31.5387 32.2217 30.6523 32.2217C29.766 32.2217 28.916 31.8696 28.2892 31.2429C27.6625 30.6162 27.3104 29.7662 27.3104 28.8798M30.6523 25.5379C29.766 25.5379 28.916 25.89 28.2892 26.5168C27.6625 27.1435 27.3104 27.9935 27.3104 28.8798M30.6523 25.5379L30.6523 15.5122C30.6523 14.6259 30.3002 13.7759 29.6735 13.1492C29.0468 12.5224 28.1968 12.1703 27.3104 12.1703L18.9557 12.1703M27.3104 28.8798L13.9428 28.8798M13.9428 28.8798C13.9428 29.7662 13.5907 30.6162 12.964 31.2429C12.3373 31.8696 11.4873 32.2217 10.6009 32.2217C9.71461 32.2217 8.86458 31.8696 8.23785 31.2429C7.61112 30.6162 7.25903 29.7662 7.25903 28.8798C7.25903 27.9935 7.61112 27.1435 8.23785 26.5168C8.86458 25.89 9.71461 25.5379 10.6009 25.5379C11.4873 25.5379 12.3373 25.89 12.964 26.5168C13.5907 27.1435 13.9428 27.9935 13.9428 28.8798ZM18.9557 12.1703L23.9685 17.1832M18.9557 12.1703L23.9685 7.15749M10.6009 15.5122C11.4873 15.5122 12.3373 15.1602 12.964 14.5334C13.5907 13.9067 13.9428 13.0567 13.9428 12.1703C13.9428 11.284 13.5907 10.434 12.964 9.80727C12.3373 9.18054 11.4873 8.82844 10.6009 8.82844C9.7146 8.82844 8.86458 9.18054 8.23785 9.80727C7.61112 10.434 7.25903 11.284 7.25903 12.1703C7.25903 13.0567 7.61112 13.9067 8.23785 14.5334C8.86458 15.1602 9.7146 15.5122 10.6009 15.5122Z" stroke="#7259FF" stroke-width="4.01028" stroke-linecap="round" stroke-linejoin="round"/>
</svg>
