<svg width="1275" height="42" viewBox="0 0 1275 42" fill="none" xmlns="http://www.w3.org/2000/svg">
<mask id="mask0_88_1850" style="mask-type:alpha" maskUnits="userSpaceOnUse" x="0" y="0" width="1275" height="42">
<rect width="1275" height="42" rx="2" fill="#D9D9D9"/>
</mask>
<g mask="url(#mask0_88_1850)">
<rect x="850" y="46.5608" width="12.9997" height="29.6731" transform="rotate(-180 850 46.5608)" fill="#7259FF"/>
<rect x="850" y="46.5608" width="12.9997" height="29.6731" transform="rotate(-180 850 46.5608)" fill="#7259FF"/>
<rect x="850" y="46.5608" width="12.9997" height="29.6731" transform="rotate(-180 850 46.5608)" fill="#7259FF"/>
<rect x="850" y="7.56177" width="12.9997" height="11.3041" transform="rotate(-180 850 7.56177)" fill="#7259FF"/>
<rect x="850" y="7.56177" width="12.9997" height="11.3041" transform="rotate(-180 850 7.56177)" fill="#7259FF"/>
<rect x="850" y="7.56177" width="12.9997" height="11.3041" transform="rotate(-180 850 7.56177)" fill="#7259FF"/>
<rect x="824.848" y="25.9309" width="12.9997" height="29.6731" transform="rotate(-180 824.848 25.9309)" fill="#7259FF"/>
<rect x="824.848" y="25.9309" width="12.9997" height="29.6731" transform="rotate(-180 824.848 25.9309)" fill="#7259FF"/>
<rect x="824.848" y="25.9309" width="12.9997" height="29.6731" transform="rotate(-180 824.848 25.9309)" fill="#7259FF"/>
<rect x="799.697" y="46.5608" width="12.9997" height="29.6731" transform="rotate(-180 799.697 46.5608)" fill="#7259FF"/>
<rect x="799.697" y="46.5608" width="12.9997" height="29.6731" transform="rotate(-180 799.697 46.5608)" fill="#7259FF"/>
<rect x="799.697" y="46.5608" width="12.9997" height="29.6731" transform="rotate(-180 799.697 46.5608)" fill="#7259FF"/>
<rect x="799.697" y="7.56177" width="12.9997" height="11.3041" transform="rotate(-180 799.697 7.56177)" fill="#7259FF"/>
<rect x="799.697" y="7.56177" width="12.9997" height="11.3041" transform="rotate(-180 799.697 7.56177)" fill="#7259FF"/>
<rect x="799.697" y="7.56177" width="12.9997" height="11.3041" transform="rotate(-180 799.697 7.56177)" fill="#7259FF"/>
<rect x="774.545" y="25.9309" width="12.9997" height="29.6731" transform="rotate(-180 774.545 25.9309)" fill="#7259FF"/>
<rect x="774.545" y="25.9309" width="12.9997" height="29.6731" transform="rotate(-180 774.545 25.9309)" fill="#7259FF"/>
<rect x="774.545" y="25.9309" width="12.9997" height="29.6731" transform="rotate(-180 774.545 25.9309)" fill="#7259FF"/>
<rect x="749.394" y="46.5608" width="12.9997" height="29.6731" transform="rotate(-180 749.394 46.5608)" fill="#7259FF"/>
<rect x="749.394" y="46.5608" width="12.9997" height="29.6731" transform="rotate(-180 749.394 46.5608)" fill="#7259FF"/>
<rect x="749.394" y="46.5608" width="12.9997" height="29.6731" transform="rotate(-180 749.394 46.5608)" fill="#7259FF"/>
<rect x="749.394" y="7.56177" width="12.9997" height="11.3041" transform="rotate(-180 749.394 7.56177)" fill="#7259FF"/>
<rect x="749.394" y="7.56177" width="12.9997" height="11.3041" transform="rotate(-180 749.394 7.56177)" fill="#7259FF"/>
<rect x="749.394" y="7.56177" width="12.9997" height="11.3041" transform="rotate(-180 749.394 7.56177)" fill="#7259FF"/>
<rect x="724.242" y="25.9309" width="12.9997" height="29.6731" transform="rotate(-180 724.242 25.9309)" fill="#7259FF"/>
<rect x="724.242" y="25.9309" width="12.9997" height="29.6731" transform="rotate(-180 724.242 25.9309)" fill="#7259FF"/>
<rect x="724.242" y="25.9309" width="12.9997" height="29.6731" transform="rotate(-180 724.242 25.9309)" fill="#7259FF"/>
<rect x="699.091" y="46.5608" width="12.9997" height="29.6731" transform="rotate(-180 699.091 46.5608)" fill="#7259FF"/>
<rect x="699.091" y="46.5608" width="12.9997" height="29.6731" transform="rotate(-180 699.091 46.5608)" fill="#7259FF"/>
<rect x="699.091" y="46.5608" width="12.9997" height="29.6731" transform="rotate(-180 699.091 46.5608)" fill="#7259FF"/>
<rect x="699.091" y="7.56177" width="12.9997" height="11.3041" transform="rotate(-180 699.091 7.56177)" fill="#7259FF"/>
<rect x="699.091" y="7.56177" width="12.9997" height="11.3041" transform="rotate(-180 699.091 7.56177)" fill="#7259FF"/>
<rect x="699.091" y="7.56177" width="12.9997" height="11.3041" transform="rotate(-180 699.091 7.56177)" fill="#7259FF"/>
<rect x="673.939" y="25.9308" width="12.9997" height="29.6731" transform="rotate(-180 673.939 25.9308)" fill="#7259FF"/>
<rect x="673.939" y="25.9308" width="12.9997" height="29.6731" transform="rotate(-180 673.939 25.9308)" fill="#7259FF"/>
<rect x="673.939" y="25.9308" width="12.9997" height="29.6731" transform="rotate(-180 673.939 25.9308)" fill="#7259FF"/>
<rect x="648.788" y="46.5608" width="12.9997" height="29.6731" transform="rotate(-180 648.788 46.5608)" fill="#7259FF"/>
<rect x="648.788" y="46.5608" width="12.9997" height="29.6731" transform="rotate(-180 648.788 46.5608)" fill="#7259FF"/>
<rect x="648.788" y="46.5608" width="12.9997" height="29.6731" transform="rotate(-180 648.788 46.5608)" fill="#7259FF"/>
<rect x="648.788" y="7.56177" width="12.9997" height="11.3041" transform="rotate(-180 648.788 7.56177)" fill="#7259FF"/>
<rect x="648.788" y="7.56177" width="12.9997" height="11.3041" transform="rotate(-180 648.788 7.56177)" fill="#7259FF"/>
<rect x="648.788" y="7.56177" width="12.9997" height="11.3041" transform="rotate(-180 648.788 7.56177)" fill="#7259FF"/>
<rect x="623.636" y="25.9308" width="12.9997" height="29.6731" transform="rotate(-180 623.636 25.9308)" fill="#7259FF"/>
<rect x="623.636" y="25.9308" width="12.9997" height="29.6731" transform="rotate(-180 623.636 25.9308)" fill="#7259FF"/>
<rect x="623.636" y="25.9308" width="12.9997" height="29.6731" transform="rotate(-180 623.636 25.9308)" fill="#7259FF"/>
<rect x="598.485" y="46.5608" width="12.9997" height="29.6731" transform="rotate(-180 598.485 46.5608)" fill="#7259FF"/>
<rect x="598.485" y="46.5608" width="12.9997" height="29.6731" transform="rotate(-180 598.485 46.5608)" fill="#7259FF"/>
<rect x="598.485" y="46.5608" width="12.9997" height="29.6731" transform="rotate(-180 598.485 46.5608)" fill="#7259FF"/>
<rect x="598.485" y="7.56177" width="12.9997" height="11.3041" transform="rotate(-180 598.485 7.56177)" fill="#7259FF"/>
<rect x="598.485" y="7.56177" width="12.9997" height="11.3041" transform="rotate(-180 598.485 7.56177)" fill="#7259FF"/>
<rect x="598.485" y="7.56177" width="12.9997" height="11.3041" transform="rotate(-180 598.485 7.56177)" fill="#7259FF"/>
<rect x="573.333" y="25.9308" width="12.9997" height="29.6731" transform="rotate(-180 573.333 25.9308)" fill="#7259FF"/>
<rect x="573.333" y="25.9308" width="12.9997" height="29.6731" transform="rotate(-180 573.333 25.9308)" fill="#7259FF"/>
<rect x="573.333" y="25.9308" width="12.9997" height="29.6731" transform="rotate(-180 573.333 25.9308)" fill="#7259FF"/>
<rect x="548.182" y="46.5608" width="12.9997" height="29.6731" transform="rotate(-180 548.182 46.5608)" fill="#7259FF"/>
<rect x="548.182" y="46.5608" width="12.9997" height="29.6731" transform="rotate(-180 548.182 46.5608)" fill="#7259FF"/>
<rect x="548.182" y="46.5608" width="12.9997" height="29.6731" transform="rotate(-180 548.182 46.5608)" fill="#7259FF"/>
<rect x="548.182" y="7.56177" width="12.9997" height="11.3041" transform="rotate(-180 548.182 7.56177)" fill="#7259FF"/>
<rect x="548.182" y="7.56177" width="12.9997" height="11.3041" transform="rotate(-180 548.182 7.56177)" fill="#7259FF"/>
<rect x="548.182" y="7.56177" width="12.9997" height="11.3041" transform="rotate(-180 548.182 7.56177)" fill="#7259FF"/>
<rect x="523.03" y="25.9308" width="12.9997" height="29.6731" transform="rotate(-180 523.03 25.9308)" fill="#7259FF"/>
<rect x="523.03" y="25.9308" width="12.9997" height="29.6731" transform="rotate(-180 523.03 25.9308)" fill="#7259FF"/>
<rect x="523.03" y="25.9308" width="12.9997" height="29.6731" transform="rotate(-180 523.03 25.9308)" fill="#7259FF"/>
<rect x="497.879" y="46.5608" width="12.9997" height="29.6731" transform="rotate(-180 497.879 46.5608)" fill="#7259FF"/>
<rect x="497.879" y="46.5608" width="12.9997" height="29.6731" transform="rotate(-180 497.879 46.5608)" fill="#7259FF"/>
<rect x="497.879" y="46.5608" width="12.9997" height="29.6731" transform="rotate(-180 497.879 46.5608)" fill="#7259FF"/>
<rect x="497.879" y="7.56177" width="12.9997" height="11.3041" transform="rotate(-180 497.879 7.56177)" fill="#7259FF"/>
<rect x="497.879" y="7.56177" width="12.9997" height="11.3041" transform="rotate(-180 497.879 7.56177)" fill="#7259FF"/>
<rect x="497.879" y="7.56177" width="12.9997" height="11.3041" transform="rotate(-180 497.879 7.56177)" fill="#7259FF"/>
<rect x="472.727" y="25.9308" width="12.9997" height="29.6731" transform="rotate(-180 472.727 25.9308)" fill="#7259FF"/>
<rect x="472.727" y="25.9308" width="12.9997" height="29.6731" transform="rotate(-180 472.727 25.9308)" fill="#7259FF"/>
<rect x="472.727" y="25.9308" width="12.9997" height="29.6731" transform="rotate(-180 472.727 25.9308)" fill="#7259FF"/>
<rect x="447.576" y="46.5607" width="12.9997" height="29.6731" transform="rotate(-180 447.576 46.5607)" fill="#7259FF"/>
<rect x="447.576" y="46.5607" width="12.9997" height="29.6731" transform="rotate(-180 447.576 46.5607)" fill="#7259FF"/>
<rect x="447.576" y="46.5607" width="12.9997" height="29.6731" transform="rotate(-180 447.576 46.5607)" fill="#7259FF"/>
<rect x="447.576" y="7.56171" width="12.9997" height="11.3041" transform="rotate(-180 447.576 7.56171)" fill="#7259FF"/>
<rect x="447.576" y="7.56171" width="12.9997" height="11.3041" transform="rotate(-180 447.576 7.56171)" fill="#7259FF"/>
<rect x="447.576" y="7.56171" width="12.9997" height="11.3041" transform="rotate(-180 447.576 7.56171)" fill="#7259FF"/>
<rect x="422.424" y="25.9308" width="12.9997" height="29.6731" transform="rotate(-180 422.424 25.9308)" fill="#7259FF"/>
<rect x="422.424" y="25.9308" width="12.9997" height="29.6731" transform="rotate(-180 422.424 25.9308)" fill="#7259FF"/>
<rect x="422.424" y="25.9308" width="12.9997" height="29.6731" transform="rotate(-180 422.424 25.9308)" fill="#7259FF"/>
<rect x="397.272" y="46.5607" width="12.9997" height="29.6731" transform="rotate(-180 397.272 46.5607)" fill="#7259FF"/>
<rect x="397.272" y="46.5607" width="12.9997" height="29.6731" transform="rotate(-180 397.272 46.5607)" fill="#7259FF"/>
<rect x="397.272" y="46.5607" width="12.9997" height="29.6731" transform="rotate(-180 397.272 46.5607)" fill="#7259FF"/>
<rect x="397.272" y="7.56171" width="12.9997" height="11.3041" transform="rotate(-180 397.272 7.56171)" fill="#7259FF"/>
<rect x="397.272" y="7.56171" width="12.9997" height="11.3041" transform="rotate(-180 397.272 7.56171)" fill="#7259FF"/>
<rect x="397.272" y="7.56171" width="12.9997" height="11.3041" transform="rotate(-180 397.272 7.56171)" fill="#7259FF"/>
<rect x="372.121" y="25.9308" width="12.9997" height="29.6731" transform="rotate(-180 372.121 25.9308)" fill="#7259FF"/>
<rect x="372.121" y="25.9308" width="12.9997" height="29.6731" transform="rotate(-180 372.121 25.9308)" fill="#7259FF"/>
<rect x="372.121" y="25.9308" width="12.9997" height="29.6731" transform="rotate(-180 372.121 25.9308)" fill="#7259FF"/>
<rect x="346.969" y="46.5607" width="12.9997" height="29.6731" transform="rotate(-180 346.969 46.5607)" fill="#7259FF"/>
<rect x="346.969" y="46.5607" width="12.9997" height="29.6731" transform="rotate(-180 346.969 46.5607)" fill="#7259FF"/>
<rect x="346.969" y="46.5607" width="12.9997" height="29.6731" transform="rotate(-180 346.969 46.5607)" fill="#7259FF"/>
<rect x="346.969" y="7.56171" width="12.9997" height="11.3041" transform="rotate(-180 346.969 7.56171)" fill="#7259FF"/>
<rect x="346.969" y="7.56171" width="12.9997" height="11.3041" transform="rotate(-180 346.969 7.56171)" fill="#7259FF"/>
<rect x="346.969" y="7.56171" width="12.9997" height="11.3041" transform="rotate(-180 346.969 7.56171)" fill="#7259FF"/>
<rect x="321.818" y="25.9308" width="12.9997" height="29.6731" transform="rotate(-180 321.818 25.9308)" fill="#7259FF"/>
<rect x="321.818" y="25.9308" width="12.9997" height="29.6731" transform="rotate(-180 321.818 25.9308)" fill="#7259FF"/>
<rect x="321.818" y="25.9308" width="12.9997" height="29.6731" transform="rotate(-180 321.818 25.9308)" fill="#7259FF"/>
<rect x="296.667" y="46.5607" width="12.9997" height="29.6731" transform="rotate(-180 296.667 46.5607)" fill="#7259FF"/>
<rect x="296.667" y="46.5607" width="12.9997" height="29.6731" transform="rotate(-180 296.667 46.5607)" fill="#7259FF"/>
<rect x="296.667" y="46.5607" width="12.9997" height="29.6731" transform="rotate(-180 296.667 46.5607)" fill="#7259FF"/>
<rect x="296.667" y="7.56171" width="12.9997" height="11.3041" transform="rotate(-180 296.667 7.56171)" fill="#7259FF"/>
<rect x="296.667" y="7.56171" width="12.9997" height="11.3041" transform="rotate(-180 296.667 7.56171)" fill="#7259FF"/>
<rect x="296.667" y="7.56171" width="12.9997" height="11.3041" transform="rotate(-180 296.667 7.56171)" fill="#7259FF"/>
<rect x="271.515" y="25.9308" width="12.9997" height="29.6731" transform="rotate(-180 271.515 25.9308)" fill="#7259FF"/>
<rect x="271.515" y="25.9308" width="12.9997" height="29.6731" transform="rotate(-180 271.515 25.9308)" fill="#7259FF"/>
<rect x="271.515" y="25.9308" width="12.9997" height="29.6731" transform="rotate(-180 271.515 25.9308)" fill="#7259FF"/>
<rect x="246.363" y="46.5607" width="12.9997" height="29.6731" transform="rotate(-180 246.363 46.5607)" fill="#7259FF"/>
<rect x="246.363" y="46.5607" width="12.9997" height="29.6731" transform="rotate(-180 246.363 46.5607)" fill="#7259FF"/>
<rect x="246.363" y="46.5607" width="12.9997" height="29.6731" transform="rotate(-180 246.363 46.5607)" fill="#7259FF"/>
<rect x="246.363" y="7.56171" width="12.9997" height="11.3041" transform="rotate(-180 246.363 7.56171)" fill="#7259FF"/>
<rect x="246.363" y="7.56171" width="12.9997" height="11.3041" transform="rotate(-180 246.363 7.56171)" fill="#7259FF"/>
<rect x="246.363" y="7.56171" width="12.9997" height="11.3041" transform="rotate(-180 246.363 7.56171)" fill="#7259FF"/>
<rect x="221.212" y="25.9308" width="12.9997" height="29.6731" transform="rotate(-180 221.212 25.9308)" fill="#7259FF"/>
<rect x="221.212" y="25.9308" width="12.9997" height="29.6731" transform="rotate(-180 221.212 25.9308)" fill="#7259FF"/>
<rect x="221.212" y="25.9308" width="12.9997" height="29.6731" transform="rotate(-180 221.212 25.9308)" fill="#7259FF"/>
<rect x="196.06" y="46.5607" width="12.9997" height="29.6731" transform="rotate(-180 196.06 46.5607)" fill="#7259FF"/>
<rect x="196.06" y="46.5607" width="12.9997" height="29.6731" transform="rotate(-180 196.06 46.5607)" fill="#7259FF"/>
<rect x="196.06" y="46.5607" width="12.9997" height="29.6731" transform="rotate(-180 196.06 46.5607)" fill="#7259FF"/>
<rect x="196.06" y="7.56171" width="12.9997" height="11.3041" transform="rotate(-180 196.06 7.56171)" fill="#7259FF"/>
<rect x="196.06" y="7.56171" width="12.9997" height="11.3041" transform="rotate(-180 196.06 7.56171)" fill="#7259FF"/>
<rect x="196.06" y="7.56171" width="12.9997" height="11.3041" transform="rotate(-180 196.06 7.56171)" fill="#7259FF"/>
<rect x="170.909" y="25.9308" width="12.9997" height="29.6731" transform="rotate(-180 170.909 25.9308)" fill="#7259FF"/>
<rect x="170.909" y="25.9308" width="12.9997" height="29.6731" transform="rotate(-180 170.909 25.9308)" fill="#7259FF"/>
<rect x="170.909" y="25.9308" width="12.9997" height="29.6731" transform="rotate(-180 170.909 25.9308)" fill="#7259FF"/>
<rect x="145.757" y="46.5607" width="12.9997" height="29.6731" transform="rotate(-180 145.757 46.5607)" fill="#7259FF"/>
<rect x="145.757" y="46.5607" width="12.9997" height="29.6731" transform="rotate(-180 145.757 46.5607)" fill="#7259FF"/>
<rect x="145.757" y="46.5607" width="12.9997" height="29.6731" transform="rotate(-180 145.757 46.5607)" fill="#7259FF"/>
<rect x="145.757" y="7.56171" width="12.9997" height="11.3041" transform="rotate(-180 145.757 7.56171)" fill="#7259FF"/>
<rect x="145.757" y="7.56171" width="12.9997" height="11.3041" transform="rotate(-180 145.757 7.56171)" fill="#7259FF"/>
<rect x="145.757" y="7.56171" width="12.9997" height="11.3041" transform="rotate(-180 145.757 7.56171)" fill="#7259FF"/>
<rect x="120.606" y="25.9308" width="12.9997" height="29.6731" transform="rotate(-180 120.606 25.9308)" fill="#7259FF"/>
<rect x="120.606" y="25.9308" width="12.9997" height="29.6731" transform="rotate(-180 120.606 25.9308)" fill="#7259FF"/>
<rect x="120.606" y="25.9308" width="12.9997" height="29.6731" transform="rotate(-180 120.606 25.9308)" fill="#7259FF"/>
<rect x="95.4541" y="46.5607" width="12.9997" height="29.6731" transform="rotate(-180 95.4541 46.5607)" fill="#7259FF"/>
<rect x="95.4541" y="46.5607" width="12.9997" height="29.6731" transform="rotate(-180 95.4541 46.5607)" fill="#7259FF"/>
<rect x="95.4541" y="46.5607" width="12.9997" height="29.6731" transform="rotate(-180 95.4541 46.5607)" fill="#7259FF"/>
<rect x="95.4541" y="7.56171" width="12.9997" height="11.3041" transform="rotate(-180 95.4541 7.56171)" fill="#7259FF"/>
<rect x="95.4541" y="7.56171" width="12.9997" height="11.3041" transform="rotate(-180 95.4541 7.56171)" fill="#7259FF"/>
<rect x="95.4541" y="7.56171" width="12.9997" height="11.3041" transform="rotate(-180 95.4541 7.56171)" fill="#7259FF"/>
<rect x="70.3025" y="25.9308" width="12.9997" height="29.6731" transform="rotate(-180 70.3025 25.9308)" fill="#7259FF"/>
<rect x="70.3025" y="25.9308" width="12.9997" height="29.6731" transform="rotate(-180 70.3025 25.9308)" fill="#7259FF"/>
<rect x="70.3025" y="25.9308" width="12.9997" height="29.6731" transform="rotate(-180 70.3025 25.9308)" fill="#7259FF"/>
<rect x="45.1509" y="46.5607" width="12.9997" height="29.6731" transform="rotate(-180 45.1509 46.5607)" fill="#7259FF"/>
<rect x="45.1509" y="46.5607" width="12.9997" height="29.6731" transform="rotate(-180 45.1509 46.5607)" fill="#7259FF"/>
<rect x="45.1509" y="46.5607" width="12.9997" height="29.6731" transform="rotate(-180 45.1509 46.5607)" fill="#7259FF"/>
<rect x="45.1509" y="7.56171" width="12.9997" height="11.3041" transform="rotate(-180 45.1509 7.56171)" fill="#7259FF"/>
<rect x="45.1509" y="7.56171" width="12.9997" height="11.3041" transform="rotate(-180 45.1509 7.56171)" fill="#7259FF"/>
<rect x="45.1509" y="7.56171" width="12.9997" height="11.3041" transform="rotate(-180 45.1509 7.56171)" fill="#7259FF"/>
<rect x="19.9996" y="25.9308" width="12.9997" height="29.6731" transform="rotate(-180 19.9996 25.9308)" fill="#7259FF"/>
<rect x="19.9996" y="25.9308" width="12.9997" height="29.6731" transform="rotate(-180 19.9996 25.9308)" fill="#7259FF"/>
<rect x="19.9996" y="25.9308" width="12.9997" height="29.6731" transform="rotate(-180 19.9996 25.9308)" fill="#7259FF"/>
<rect x="1280.42" y="25.9308" width="12.9997" height="29.6731" transform="rotate(-180 1280.42 25.9308)" fill="#7259FF"/>
<rect x="1280.42" y="25.9308" width="12.9997" height="29.6731" transform="rotate(-180 1280.42 25.9308)" fill="#7259FF"/>
<rect x="1280.42" y="25.9308" width="12.9997" height="29.6731" transform="rotate(-180 1280.42 25.9308)" fill="#7259FF"/>
<rect x="1255.27" y="46.5607" width="12.9997" height="29.6731" transform="rotate(-180 1255.27 46.5607)" fill="#7259FF"/>
<rect x="1255.27" y="46.5607" width="12.9997" height="29.6731" transform="rotate(-180 1255.27 46.5607)" fill="#7259FF"/>
<rect x="1255.27" y="46.5607" width="12.9997" height="29.6731" transform="rotate(-180 1255.27 46.5607)" fill="#7259FF"/>
<rect x="1255.27" y="7.56171" width="12.9997" height="11.3041" transform="rotate(-180 1255.27 7.56171)" fill="#7259FF"/>
<rect x="1255.27" y="7.56171" width="12.9997" height="11.3041" transform="rotate(-180 1255.27 7.56171)" fill="#7259FF"/>
<rect x="1255.27" y="7.56171" width="12.9997" height="11.3041" transform="rotate(-180 1255.27 7.56171)" fill="#7259FF"/>
<rect x="1230.12" y="25.9308" width="12.9997" height="29.6731" transform="rotate(-180 1230.12 25.9308)" fill="#7259FF"/>
<rect x="1230.12" y="25.9308" width="12.9997" height="29.6731" transform="rotate(-180 1230.12 25.9308)" fill="#7259FF"/>
<rect x="1230.12" y="25.9308" width="12.9997" height="29.6731" transform="rotate(-180 1230.12 25.9308)" fill="#7259FF"/>
<rect x="1204.97" y="46.5607" width="12.9997" height="29.6731" transform="rotate(-180 1204.97 46.5607)" fill="#7259FF"/>
<rect x="1204.97" y="46.5607" width="12.9997" height="29.6731" transform="rotate(-180 1204.97 46.5607)" fill="#7259FF"/>
<rect x="1204.97" y="46.5607" width="12.9997" height="29.6731" transform="rotate(-180 1204.97 46.5607)" fill="#7259FF"/>
<rect x="1204.97" y="7.56171" width="12.9997" height="11.3041" transform="rotate(-180 1204.97 7.56171)" fill="#7259FF"/>
<rect x="1204.97" y="7.56171" width="12.9997" height="11.3041" transform="rotate(-180 1204.97 7.56171)" fill="#7259FF"/>
<rect x="1204.97" y="7.56171" width="12.9997" height="11.3041" transform="rotate(-180 1204.97 7.56171)" fill="#7259FF"/>
<rect x="1179.82" y="25.9308" width="12.9997" height="29.6731" transform="rotate(-180 1179.82 25.9308)" fill="#7259FF"/>
<rect x="1179.82" y="25.9308" width="12.9997" height="29.6731" transform="rotate(-180 1179.82 25.9308)" fill="#7259FF"/>
<rect x="1179.82" y="25.9308" width="12.9997" height="29.6731" transform="rotate(-180 1179.82 25.9308)" fill="#7259FF"/>
<rect x="1154.67" y="46.5607" width="12.9997" height="29.6731" transform="rotate(-180 1154.67 46.5607)" fill="#7259FF"/>
<rect x="1154.67" y="46.5607" width="12.9997" height="29.6731" transform="rotate(-180 1154.67 46.5607)" fill="#7259FF"/>
<rect x="1154.67" y="46.5607" width="12.9997" height="29.6731" transform="rotate(-180 1154.67 46.5607)" fill="#7259FF"/>
<rect x="1154.67" y="7.56171" width="12.9997" height="11.3041" transform="rotate(-180 1154.67 7.56171)" fill="#7259FF"/>
<rect x="1154.67" y="7.56171" width="12.9997" height="11.3041" transform="rotate(-180 1154.67 7.56171)" fill="#7259FF"/>
<rect x="1154.67" y="7.56171" width="12.9997" height="11.3041" transform="rotate(-180 1154.67 7.56171)" fill="#7259FF"/>
<rect x="1129.52" y="25.9308" width="12.9997" height="29.6731" transform="rotate(-180 1129.52 25.9308)" fill="#7259FF"/>
<rect x="1129.52" y="25.9308" width="12.9997" height="29.6731" transform="rotate(-180 1129.52 25.9308)" fill="#7259FF"/>
<rect x="1129.52" y="25.9308" width="12.9997" height="29.6731" transform="rotate(-180 1129.52 25.9308)" fill="#7259FF"/>
<rect x="1104.36" y="46.5607" width="12.9997" height="29.6731" transform="rotate(-180 1104.36 46.5607)" fill="#7259FF"/>
<rect x="1104.36" y="46.5607" width="12.9997" height="29.6731" transform="rotate(-180 1104.36 46.5607)" fill="#7259FF"/>
<rect x="1104.36" y="46.5607" width="12.9997" height="29.6731" transform="rotate(-180 1104.36 46.5607)" fill="#7259FF"/>
<rect x="1104.36" y="7.56171" width="12.9997" height="11.3041" transform="rotate(-180 1104.36 7.56171)" fill="#7259FF"/>
<rect x="1104.36" y="7.56171" width="12.9997" height="11.3041" transform="rotate(-180 1104.36 7.56171)" fill="#7259FF"/>
<rect x="1104.36" y="7.56171" width="12.9997" height="11.3041" transform="rotate(-180 1104.36 7.56171)" fill="#7259FF"/>
<rect x="1079.21" y="25.9308" width="12.9997" height="29.6731" transform="rotate(-180 1079.21 25.9308)" fill="#7259FF"/>
<rect x="1079.21" y="25.9308" width="12.9997" height="29.6731" transform="rotate(-180 1079.21 25.9308)" fill="#7259FF"/>
<rect x="1079.21" y="25.9308" width="12.9997" height="29.6731" transform="rotate(-180 1079.21 25.9308)" fill="#7259FF"/>
<rect x="1054.06" y="46.5607" width="12.9997" height="29.6731" transform="rotate(-180 1054.06 46.5607)" fill="#7259FF"/>
<rect x="1054.06" y="46.5607" width="12.9997" height="29.6731" transform="rotate(-180 1054.06 46.5607)" fill="#7259FF"/>
<rect x="1054.06" y="46.5607" width="12.9997" height="29.6731" transform="rotate(-180 1054.06 46.5607)" fill="#7259FF"/>
<rect x="1054.06" y="7.56171" width="12.9997" height="11.3041" transform="rotate(-180 1054.06 7.56171)" fill="#7259FF"/>
<rect x="1054.06" y="7.56171" width="12.9997" height="11.3041" transform="rotate(-180 1054.06 7.56171)" fill="#7259FF"/>
<rect x="1054.06" y="7.56171" width="12.9997" height="11.3041" transform="rotate(-180 1054.06 7.56171)" fill="#7259FF"/>
<rect x="1028.91" y="25.9308" width="12.9997" height="29.6731" transform="rotate(-180 1028.91 25.9308)" fill="#7259FF"/>
<rect x="1028.91" y="25.9308" width="12.9997" height="29.6731" transform="rotate(-180 1028.91 25.9308)" fill="#7259FF"/>
<rect x="1028.91" y="25.9308" width="12.9997" height="29.6731" transform="rotate(-180 1028.91 25.9308)" fill="#7259FF"/>
<rect x="1003.76" y="46.5607" width="12.9997" height="29.6731" transform="rotate(-180 1003.76 46.5607)" fill="#7259FF"/>
<rect x="1003.76" y="46.5607" width="12.9997" height="29.6731" transform="rotate(-180 1003.76 46.5607)" fill="#7259FF"/>
<rect x="1003.76" y="46.5607" width="12.9997" height="29.6731" transform="rotate(-180 1003.76 46.5607)" fill="#7259FF"/>
<rect x="1003.76" y="7.56171" width="12.9997" height="11.3041" transform="rotate(-180 1003.76 7.56171)" fill="#7259FF"/>
<rect x="1003.76" y="7.56171" width="12.9997" height="11.3041" transform="rotate(-180 1003.76 7.56171)" fill="#7259FF"/>
<rect x="1003.76" y="7.56171" width="12.9997" height="11.3041" transform="rotate(-180 1003.76 7.56171)" fill="#7259FF"/>
<rect x="978.606" y="25.9308" width="12.9997" height="29.6731" transform="rotate(-180 978.606 25.9308)" fill="#7259FF"/>
<rect x="978.606" y="25.9308" width="12.9997" height="29.6731" transform="rotate(-180 978.606 25.9308)" fill="#7259FF"/>
<rect x="978.606" y="25.9308" width="12.9997" height="29.6731" transform="rotate(-180 978.606 25.9308)" fill="#7259FF"/>
<rect x="953.454" y="46.5607" width="12.9997" height="29.6731" transform="rotate(-180 953.454 46.5607)" fill="#7259FF"/>
<rect x="953.454" y="46.5607" width="12.9997" height="29.6731" transform="rotate(-180 953.454 46.5607)" fill="#7259FF"/>
<rect x="953.454" y="46.5607" width="12.9997" height="29.6731" transform="rotate(-180 953.454 46.5607)" fill="#7259FF"/>
<rect x="953.454" y="7.56171" width="12.9997" height="11.3041" transform="rotate(-180 953.454 7.56171)" fill="#7259FF"/>
<rect x="953.454" y="7.56171" width="12.9997" height="11.3041" transform="rotate(-180 953.454 7.56171)" fill="#7259FF"/>
<rect x="953.454" y="7.56171" width="12.9997" height="11.3041" transform="rotate(-180 953.454 7.56171)" fill="#7259FF"/>
<rect x="928.302" y="25.9308" width="12.9997" height="29.6731" transform="rotate(-180 928.302 25.9308)" fill="#7259FF"/>
<rect x="928.302" y="25.9308" width="12.9997" height="29.6731" transform="rotate(-180 928.302 25.9308)" fill="#7259FF"/>
<rect x="928.302" y="25.9308" width="12.9997" height="29.6731" transform="rotate(-180 928.302 25.9308)" fill="#7259FF"/>
<rect x="903.151" y="46.5607" width="12.9997" height="29.6731" transform="rotate(-180 903.151 46.5607)" fill="#7259FF"/>
<rect x="903.151" y="46.5607" width="12.9997" height="29.6731" transform="rotate(-180 903.151 46.5607)" fill="#7259FF"/>
<rect x="903.151" y="46.5607" width="12.9997" height="29.6731" transform="rotate(-180 903.151 46.5607)" fill="#7259FF"/>
<rect x="903.151" y="7.56171" width="12.9997" height="11.3041" transform="rotate(-180 903.151 7.56171)" fill="#7259FF"/>
<rect x="903.151" y="7.56171" width="12.9997" height="11.3041" transform="rotate(-180 903.151 7.56171)" fill="#7259FF"/>
<rect x="903.151" y="7.56171" width="12.9997" height="11.3041" transform="rotate(-180 903.151 7.56171)" fill="#7259FF"/>
<rect x="878" y="25.9308" width="12.9997" height="29.6731" transform="rotate(-180 878 25.9308)" fill="#7259FF"/>
<rect x="878" y="25.9308" width="12.9997" height="29.6731" transform="rotate(-180 878 25.9308)" fill="#7259FF"/>
<rect x="878" y="25.9308" width="12.9997" height="29.6731" transform="rotate(-180 878 25.9308)" fill="#7259FF"/>
</g>
</svg>
