<svg width="104" height="38" viewBox="0 0 104 38" fill="none" xmlns="http://www.w3.org/2000/svg">
<path d="M43.5283 5.21483C44.3332 6.04369 44.7367 7.18665 44.7367 8.64806V15.881H41.8226V9.01014C41.8226 8.25762 41.6197 7.68178 41.2119 7.28262C40.8062 6.88346 40.263 6.68497 39.5847 6.68497C38.8322 6.68497 38.2301 6.91836 37.7764 7.38514C37.3249 7.85192 37.0981 8.55209 37.0981 9.48565V15.8831H34.184V3.97372H37.0981V5.5551C37.8048 4.50157 38.9281 3.97372 40.4637 3.97372C41.6983 3.97372 42.7191 4.38815 43.5239 5.21701L43.5283 5.21483Z" fill="black"/>
<path d="M52.6436 13.2569C53.7582 13.2569 54.6023 12.8796 55.1738 12.1271L57.4924 13.558C56.3778 15.1699 54.3474 15.9748 52.5673 15.9748C50.7871 15.9748 49.2322 15.3335 48.1023 14.2036C46.9724 13.0737 46.4075 11.6516 46.4075 9.93498C46.4075 8.21836 46.9637 6.81364 48.0783 5.67723C49.1929 4.54083 50.6238 3.97153 52.371 3.97153C54.0287 3.97153 55.3941 4.54301 56.4716 5.68815C57.5492 6.83329 58.0879 8.2489 58.0879 9.93498C58.0879 10.3123 58.0508 10.7115 57.9745 11.1325H49.4568C49.8473 12.5481 50.9095 13.2569 52.6414 13.2569H52.6436ZM55.1738 8.87491C55.008 8.10712 54.6656 7.53564 54.1465 7.15829C53.6273 6.78094 53.0362 6.59336 52.3731 6.59336C51.5901 6.59336 50.9423 6.79183 50.4297 7.19099C49.9171 7.59015 49.579 8.15075 49.4132 8.87491H55.1738Z" fill="black"/>
<path d="M60.9453 14.1731C59.7936 13.0214 59.2178 11.6121 59.2178 9.93716C59.2178 8.26226 59.7936 6.85292 60.9453 5.70124C62.097 4.54956 63.5082 3.97372 65.1812 3.97372C66.8542 3.97372 68.2676 4.54956 69.428 5.70124C70.5884 6.85292 71.1665 8.26635 71.1665 9.93716C71.1665 11.608 70.5863 13.0214 69.428 14.1731C68.2698 15.3248 66.852 15.9006 65.1812 15.9006C63.5104 15.9006 62.097 15.3248 60.9453 14.1731ZM67.3733 12.1729C67.9601 11.5862 68.2546 10.8402 68.2546 9.93716C68.2546 9.03414 67.9601 8.28816 67.3733 7.70142C66.7866 7.11467 66.0559 6.8202 65.1812 6.8202C64.3065 6.8202 63.5802 7.11467 63.0022 7.70142C62.422 8.28816 62.1319 9.03414 62.1319 9.93716C62.1319 10.8402 62.422 11.5862 63.0022 12.1729C63.5824 12.7597 64.3087 13.0541 65.1812 13.0541C66.0537 13.0541 66.7844 12.7597 67.3733 12.1729Z" fill="black"/>
<path d="M76.6566 6.79185V12.0115C76.6566 12.4041 76.7547 12.6899 76.9511 12.8709C77.1474 13.052 77.4331 13.1523 77.8105 13.1763C78.1878 13.1981 78.6546 13.1959 79.2108 13.1654V15.809C77.2084 16.0358 75.795 15.8461 74.9749 15.2441C74.1547 14.642 73.7447 13.5645 73.7447 12.0137V6.79403H71.7794V3.99335H73.7447V2.4556H76.6588V3.99335H79.2108V6.79403H76.6588L76.6566 6.79185Z" fill="black"/>
<path d="M86.3477 13.2569C87.4623 13.2569 88.3064 12.8796 88.8779 12.1271L91.2271 13.4816C90.1125 15.0936 88.47 15.8984 86.3019 15.8984C84.4348 15.8984 82.9363 15.3335 81.8064 14.2036C80.6766 13.0737 80.1116 11.6516 80.1116 9.93498C80.1116 8.21836 80.6678 6.81364 81.7824 5.67723C82.897 4.54083 84.3279 3.97153 86.0751 3.97153C87.7328 3.97153 89.0982 4.54301 90.1758 5.68816C91.2533 6.83329 91.792 8.2489 91.792 9.93498C91.792 10.3123 91.755 10.7115 91.6786 11.1325H83.161C83.5514 12.5481 84.6136 13.2569 86.3455 13.2569H86.3477ZM88.8779 8.87491C88.7122 8.10712 88.3697 7.53564 87.8506 7.15829C87.3315 6.78094 86.7403 6.59336 86.0773 6.59336C85.2942 6.59336 84.6464 6.79183 84.1338 7.19099C83.6212 7.59015 83.2831 8.15075 83.1173 8.87491H88.8779Z" fill="black"/>
<path d="M100.508 15.9115L96.5144 10.9013V15.9071H93.6003V2.45123H96.5144V9.70377L100.399 4.73278H103.878L99.3369 10.3123L103.896 15.9115H100.506H100.508Z" fill="black"/>
<path d="M96.5711 18.5464H93.79V21.3275H96.5711V18.5464Z" fill="black"/>
<path d="M93.79 22.6275V27.2124C93.79 27.6813 93.4607 28.063 93.0571 28.063H89.5432V22.6275H86.7622V28.063H79.1606C78.973 26.6736 78.3907 25.4805 77.4178 24.488C76.2138 23.2578 74.6651 22.6427 72.774 22.6427C70.9811 22.6427 69.5022 23.2622 68.3374 24.5011C67.3384 25.5634 66.767 26.8416 66.6252 28.3357C66.6012 28.5822 66.5903 28.8374 66.5903 29.0948C66.5903 29.5027 66.6317 30.3882 66.7124 30.8463H75.9281C75.5027 32.3775 74.4296 32.8377 72.5559 32.8377C72.1109 32.8377 71.6965 32.7636 71.3192 32.6261L70.3027 35.2371C70.9767 35.4443 71.7205 35.549 72.5297 35.549C74.5495 35.549 76.1724 34.9382 77.3938 33.7146C78.2074 32.901 78.7527 31.9434 79.0232 30.8463H86.7185C88.7689 30.6063 89.4232 29.302 89.4232 29.302V30.8463H93.0571C94.9941 30.8463 96.5711 29.2169 96.5711 27.2124V22.6275H93.79ZM69.668 28.0216C69.849 27.1906 70.294 26.4969 70.8546 26.0891C71.4173 25.6833 72.0564 25.4783 72.774 25.4783C73.6225 25.4783 74.3227 25.6943 74.8767 26.1261C75.4307 26.558 75.8714 27.2386 76.0502 28.0216H69.668Z" fill="black"/>
<path d="M65.2118 27.2124C65.2118 29.1711 63.7067 30.7721 61.8287 30.8419L56.1183 30.8441V29.302C56.1183 29.302 55.4661 30.6063 53.4136 30.8441H37.5103C35.5734 30.8441 33.9964 29.2147 33.9964 27.2102V22.6253H36.7775V27.2102C36.7775 27.6813 37.1046 28.063 37.5103 28.063H53.5139V18.4264H56.295V28.063H61.6978C62.1013 28.063 62.4307 27.6813 62.4307 27.2102V22.6253H65.2118V27.2124Z" fill="black"/>
<path d="M49.0533 25.7095H43.8599L43.8664 25.7161L40.8869 25.7204V22.7365L45.0137 18.6097L46.7216 20.3176L43.7486 23.2884H49.0555L49.0533 25.7095Z" fill="black"/>
<path d="M65.2096 18.5835H59.3945V21.2882H65.2096V18.5835Z" fill="black"/>
<path d="M89.4232 32.7679H83.6845V35.549H89.4232V32.7679Z" fill="black"/>
<path d="M27.383 8.24015V18.5682H23.11V11.1325L16.4725 17.7721L13.4428 14.7402L19.9428 8.24015H12.7819V3.96935H23.11L27.383 8.24015Z" fill="#EF6701"/>
<path d="M27.383 22.8543V27.0771L23.11 31.3523H4.273L0 27.0771V8.24015L4.273 3.96935H8.49801V8.24015H4.273V27.0771H23.11V22.8543H27.383Z" fill="black"/>
</svg>
