<svg xmlns="http://www.w3.org/2000/svg" xmlns:xlink="http://www.w3.org/1999/xlink" width="86" height="86" viewBox="0 0 86 86">
  <defs>
    <linearGradient id="linear-gradient" x1="0.919" y1="0.234" x2="0.111" y2="0.822" gradientUnits="objectBoundingBox">
      <stop offset="0" stop-color="#b5c3ff"/>
      <stop offset="1" stop-color="#fff" stop-opacity="0.008"/>
    </linearGradient>
  </defs>
  <g id="Group_17" data-name="Group 17" transform="translate(1805 2486)">
    <circle id="Ellipse_2" data-name="Ellipse 2" cx="43" cy="43" r="43" transform="translate(-1805 -2486)" fill="url(#linear-gradient)"/>
    <g id="payment_1_" data-name="payment (1)" transform="translate(-1805.947 -2480)">
      <path id="Path_28" data-name="Path 28" d="M109.564,215.762a2.025,2.025,0,0,0-2.023-2.023h-2.828a2.025,2.025,0,0,0-2.023,2.023v2.314a2.025,2.025,0,0,0,2.023,2.023h2.828a2.025,2.025,0,0,0,2.023-2.023Zm-2.193,2.144h-2.487v-1.974h2.487Z" transform="translate(-80.891 -182.489)" fill="#2150df"/>
      <path id="Path_29" data-name="Path 29" d="M44.821,215.762a2.025,2.025,0,0,0-2.023-2.023H39.97a2.025,2.025,0,0,0-2.023,2.023v2.314A2.025,2.025,0,0,0,39.97,220.1H42.8a2.025,2.025,0,0,0,2.023-2.023Zm-2.193,2.144H40.14v-1.974h2.487Z" transform="translate(-25.614 -182.489)" fill="#2150df"/>
      <path id="Path_30" data-name="Path 30" d="M109.564,272.717a2.025,2.025,0,0,0-2.023-2.023h-2.828a2.025,2.025,0,0,0-2.023,2.023v2.314a2.025,2.025,0,0,0,2.023,2.023h2.828a2.025,2.025,0,0,0,2.023-2.023Zm-2.193,2.144h-2.487v-1.974h2.487Z" transform="translate(-80.891 -231.116)" fill="#2150df"/>
      <path id="Path_31" data-name="Path 31" d="M44.821,272.717a2.025,2.025,0,0,0-2.023-2.023H39.97a2.025,2.025,0,0,0-2.023,2.023v2.314a2.025,2.025,0,0,0,2.023,2.023H42.8a2.025,2.025,0,0,0,2.023-2.023Zm-2.193,2.144H40.14v-1.974h2.487Z" transform="translate(-25.614 -231.116)" fill="#2150df"/>
      <path id="Path_32" data-name="Path 32" d="M107.542,327.651h-2.828a2.025,2.025,0,0,0-2.023,2.023v2.314a2.025,2.025,0,0,0,2.023,2.023h2.828a2.025,2.025,0,0,0,2.023-2.023v-2.314A2.026,2.026,0,0,0,107.542,327.651Zm-.17,4.167h-2.487v-1.974h2.487Z" transform="translate(-80.892 -279.746)" fill="#2150df"/>
      <path id="Path_33" data-name="Path 33" d="M42.8,327.651H39.97a2.025,2.025,0,0,0-2.023,2.023v2.314a2.025,2.025,0,0,0,2.023,2.023H42.8a2.025,2.025,0,0,0,2.023-2.023v-2.314A2.025,2.025,0,0,0,42.8,327.651Zm-.17,4.167H40.14v-1.974h2.487Z" transform="translate(-25.614 -279.746)" fill="#2150df"/>
      <path id="Path_34" data-name="Path 34" d="M169.458,334.01h2.827a2.025,2.025,0,0,0,2.023-2.023v-2.314a2.025,2.025,0,0,0-2.023-2.023h-2.827a2.025,2.025,0,0,0-2.023,2.023v2.314A2.025,2.025,0,0,0,169.458,334.01Zm.17-4.167h2.487v1.974h-2.487Z" transform="translate(-136.17 -279.745)" fill="#2150df"/>
      <path id="Path_35" data-name="Path 35" d="M80.315,65.288l-1.759-3.075,1.132-11.221a17.283,17.283,0,0,0-6.062-14.96L64.4,28.26,54.781,11.436A4.6,4.6,0,0,0,48.5,9.726l-5.979,3.419V6.152A6.159,6.159,0,0,0,36.374,0H14.1A6.159,6.159,0,0,0,7.947,6.152V52.778A6.161,6.161,0,0,0,13.47,58.9V71.544a1.479,1.479,0,0,0,2.112,1.337l2.4-1.137,3.1,1.344a1.482,1.482,0,0,0,1.2-.009l2.963-1.338,3.085,1.344a1.479,1.479,0,0,0,1.224-.019l2.781-1.317,2.583,1.159A1.479,1.479,0,0,0,37,71.557V58.9a6.161,6.161,0,0,0,5.523-6.12V49.143l1.352,2.364a4.647,4.647,0,0,0,.5.713l-.47,2.351a3.834,3.834,0,0,0,3.008,4.51,3.87,3.87,0,0,0,.759.076,3.807,3.807,0,0,0,2.119-.645l.033-.023a3.819,3.819,0,0,0,5.011,1.284,24.457,24.457,0,0,0,7.144,10.645l.771.667,1.83,3.2a1.1,1.1,0,0,0,1.9-1.089l-1.923-3.362a1.1,1.1,0,0,0-.235-.285l-.912-.789A22.272,22.272,0,0,1,55.77,53.018l-.382-8.176a3.306,3.306,0,0,0-.431-1.481L51.21,36.809a2.079,2.079,0,0,1,3.61-2.064l2.094,3.661a1.1,1.1,0,1,0,1.9-1.089l-2.094-3.661A4.272,4.272,0,1,0,49.307,37.9l3.747,6.552a1.1,1.1,0,0,1,.144.494l.182,3.9-4.315,2.468a2.407,2.407,0,0,1-3.284-.895L37.156,35.337a1.1,1.1,0,1,0-1.9,1.089l2.005,3.506a2.01,2.01,0,0,0-1.141-.354H33.289A2.025,2.025,0,0,0,31.266,41.6v2.314a2.025,2.025,0,0,0,2.023,2.023h2.827a2.025,2.025,0,0,0,2.023-2.023V41.6c0-.047,0-.093-.007-.139l2.2,3.847v7.47a3.963,3.963,0,0,1-3.959,3.959H14.1a3.963,3.963,0,0,1-3.959-3.959V6.152A3.963,3.963,0,0,1,14.1,2.193H36.374a3.963,3.963,0,0,1,3.959,3.959V14.4l-2.193,1.254v-5.6a1.767,1.767,0,0,0-1.765-1.765H14.1a1.768,1.768,0,0,0-1.766,1.766v4.68a1.1,1.1,0,0,0,2.193,0V10.481H35.946v6.427L31,19.734A4.607,4.607,0,0,0,29,25.4H14.526v-5.99a1.1,1.1,0,1,0-2.193,0v6.417A1.768,1.768,0,0,0,14.1,27.589H30.2l2.734,4.78a1.1,1.1,0,1,0,1.9-1.089L31.2,24.923a2.41,2.41,0,0,1,.895-3.284l17.5-10.008a2.407,2.407,0,0,1,3.284.895l14.582,25.5a2.407,2.407,0,0,1-.894,3.284l-4.119,2.356-1.308-2.287a1.1,1.1,0,1,0-1.9,1.089l2.958,5.172a1.1,1.1,0,1,0,1.9-1.089l-.561-.982,4.119-2.356a4.6,4.6,0,0,0,1.709-6.277L67.569,33.8l4.644,3.913a15.092,15.092,0,0,1,5.294,13.062L76.339,62.342a1.1,1.1,0,0,0,.139.655l1.933,3.38a1.1,1.1,0,1,0,1.9-1.089ZM53.579,53.12a24.189,24.189,0,0,0,.622,4.425,1.638,1.638,0,0,1-2.774-1.472l.809-4.049,1.257-.719Zm-5.7.705a4.553,4.553,0,0,0,1.841-.392l-.442,2.21A1.64,1.64,0,1,1,46.061,55l.287-1.438c.1.036.207.07.314.1a4.623,4.623,0,0,0,1.216.164ZM35.946,43.744H33.459V41.771h2.487Zm-1.137,26.71-1.878-.843a1.478,1.478,0,0,0-1.239.013l-2.785,1.319L25.83,69.6a1.482,1.482,0,0,0-1.2.008l-2.964,1.339L18.559,69.6a1.479,1.479,0,0,0-1.221.02l-1.675.793V58.93H34.809Z" fill="#2150df"/>
      <path id="Path_36" data-name="Path 36" d="M231.024,126.021a1.1,1.1,0,0,0-.77-1.346,8.378,8.378,0,0,0-10.285,5.882,1.1,1.1,0,1,0,2.116.576,6.185,6.185,0,0,1,7.593-4.343A1.1,1.1,0,0,0,231.024,126.021Z" transform="translate(-180.989 -106.192)" fill="#2150df"/>
      <path id="Path_37" data-name="Path 37" d="M253.247,156.654a1.1,1.1,0,0,0,.577-2.116,3.987,3.987,0,0,0-4.9,2.8,1.1,1.1,0,1,0,2.116.576,1.794,1.794,0,0,1,2.206-1.262Z" transform="translate(-205.712 -131.822)" fill="#2150df"/>
      <path id="Path_38" data-name="Path 38" d="M272.814,184.035a1.1,1.1,0,0,0,1.9-1.089l-.364-.637a1.1,1.1,0,1,0-1.9,1.089Z" transform="translate(-225.706 -155.182)" fill="#2150df"/>
    </g>
  </g>
</svg>
