<svg width="42" height="41" viewBox="0 0 42 41" fill="none" xmlns="http://www.w3.org/2000/svg">
<path d="M24.3083 13.8414H20.1309C19.4662 13.8414 18.8287 14.1055 18.3586 14.5755C17.8886 15.0455 17.6245 15.6831 17.6245 16.3478C17.6245 17.0126 17.8886 17.6501 18.3586 18.1201C18.8287 18.5902 19.4662 18.8542 20.1309 18.8542H21.8019C22.4666 18.8542 23.1042 19.1183 23.5742 19.5883C24.0443 20.0584 24.3083 20.6959 24.3083 21.3607C24.3083 22.0254 24.0443 22.6629 23.5742 23.133C23.1042 23.603 22.4666 23.8671 21.8019 23.8671H17.6245M20.9664 23.8671V26.3735M20.9664 11.335V13.8414M9.26978 35.5637V8.82853C9.26978 7.94221 9.62187 7.09218 10.2486 6.46545C10.8753 5.83873 11.7253 5.48663 12.6117 5.48663H29.3212C30.2075 5.48663 31.0575 5.83873 31.6843 6.46545C32.311 7.09218 32.6631 7.94221 32.6631 8.82853V35.5637L27.6502 32.2218L24.3083 35.5637L20.9664 32.2218L17.6245 35.5637L14.2826 32.2218L9.26978 35.5637Z" stroke="#7259FF" stroke-width="3.3419" stroke-linecap="round" stroke-linejoin="round"/>
</svg>
