<svg width="42" height="41" viewBox="0 0 42 41" fill="none" xmlns="http://www.w3.org/2000/svg">
<path d="M15.9536 9.22291H12.6117C11.7253 9.22291 10.8753 9.575 10.2486 10.2017C9.62187 10.8285 9.26978 11.6785 9.26978 12.5648V32.6162C9.26978 33.5025 9.62187 34.3526 10.2486 34.9793C10.8753 35.606 11.7253 35.9581 12.6117 35.9581H29.3212C30.2075 35.9581 31.0575 35.606 31.6843 34.9793C32.311 34.3526 32.6631 33.5025 32.6631 32.6162V12.5648C32.6631 11.6785 32.311 10.8285 31.6843 10.2017C31.0575 9.575 30.2075 9.22291 29.3212 9.22291H25.9793M15.9536 9.22291C15.9536 8.33658 16.3057 7.48656 16.9324 6.85983C17.5591 6.2331 18.4091 5.88101 19.2955 5.88101H22.6374C23.5237 5.88101 24.3737 6.2331 25.0005 6.85983C25.6272 7.48656 25.9793 8.33658 25.9793 9.22291M15.9536 9.22291C15.9536 10.1092 16.3057 10.9593 16.9324 11.586C17.5591 12.2127 18.4091 12.5648 19.2955 12.5648H22.6374C23.5237 12.5648 24.3737 12.2127 25.0005 11.586C25.6272 10.9593 25.9793 10.1092 25.9793 9.22291M24.3083 19.2486H20.1309C19.4662 19.2486 18.8287 19.5127 18.3586 19.9827C17.8886 20.4528 17.6245 21.0903 17.6245 21.755C17.6245 22.4198 17.8886 23.0573 18.3586 23.5273C18.8287 23.9974 19.4662 24.2615 20.1309 24.2615H21.8019C22.4666 24.2615 23.1042 24.5255 23.5742 24.9956C24.0443 25.4656 24.3083 26.1031 24.3083 26.7679C24.3083 27.4326 24.0443 28.0701 23.5742 28.5402C23.1042 29.0102 22.4666 29.2743 21.8019 29.2743H17.6245M20.9664 29.2743V30.9453M20.9664 17.5777V19.2486" stroke="#7259FF" stroke-width="3.3419" stroke-linecap="round" stroke-linejoin="round"/>
</svg>
