<svg width="28" height="28" viewBox="0 0 28 28" fill="none" xmlns="http://www.w3.org/2000/svg">
<path d="M18.1464 20.6603C18.7372 20.6603 19.3039 20.8951 19.7217 21.3129C20.1396 21.7307 20.3743 22.2974 20.3743 22.8883C20.3743 22.2974 20.609 21.7307 21.0268 21.3129C21.4447 20.8951 22.0113 20.6603 22.6022 20.6603C22.0113 20.6603 21.4447 20.4256 21.0268 20.0078C20.609 19.59 20.3743 19.0233 20.3743 18.4324C20.3743 19.0233 20.1396 19.59 19.7217 20.0078C19.3039 20.4256 18.7372 20.6603 18.1464 20.6603ZM18.1464 7.29275C18.7372 7.29275 19.3039 7.52748 19.7217 7.9453C20.1396 8.36312 20.3743 8.9298 20.3743 9.52069C20.3743 8.9298 20.609 8.36312 21.0268 7.9453C21.4447 7.52748 22.0113 7.29275 22.6022 7.29275C22.0113 7.29275 21.4447 7.05802 21.0268 6.64021C20.609 6.22239 20.3743 5.6557 20.3743 5.06482C20.3743 5.6557 20.1396 6.22239 19.7217 6.64021C19.3039 7.05802 18.7372 7.29275 18.1464 7.29275ZM10.3486 20.6603C10.3486 18.8877 11.0528 17.1876 12.3062 15.9342C13.5597 14.6807 15.2597 13.9766 17.0324 13.9766C15.2597 13.9766 13.5597 13.2724 12.3062 12.0189C11.0528 10.7655 10.3486 9.06541 10.3486 7.29275C10.3486 9.06541 9.64441 10.7655 8.39095 12.0189C7.1375 13.2724 5.43745 13.9766 3.66479 13.9766C5.43745 13.9766 7.1375 14.6807 8.39095 15.9342C9.64441 17.1876 10.3486 18.8877 10.3486 20.6603Z" stroke="#7259FF" stroke-width="2.22793" stroke-linecap="round" stroke-linejoin="round"/>
</svg>
