<svg width="41" height="41" viewBox="0 0 41 41" fill="none" xmlns="http://www.w3.org/2000/svg">
<path d="M13.4895 35.2899V33.619C13.4895 32.7327 13.8416 31.8826 14.4683 31.2559C15.0951 30.6292 15.9451 30.2771 16.8314 30.2771H23.5152C24.4015 30.2771 25.2516 30.6292 25.8783 31.2559C26.505 31.8826 26.8571 32.7327 26.8571 33.619V35.2899M28.5281 16.9095H31.87C32.7563 16.9095 33.6063 17.2616 34.233 17.8883C34.8598 18.515 35.2119 19.3651 35.2119 20.2514V21.9223M5.13477 21.9223V20.2514C5.13477 19.3651 5.48686 18.515 6.11359 17.8883C6.74031 17.2616 7.59034 16.9095 8.47667 16.9095H11.8186M16.8314 21.9223C16.8314 22.8087 17.1835 23.6587 17.8102 24.2854C18.437 24.9121 19.287 25.2642 20.1733 25.2642C21.0596 25.2642 21.9097 24.9121 22.5364 24.2854C23.1631 23.6587 23.5152 22.8087 23.5152 21.9223C23.5152 21.036 23.1631 20.186 22.5364 19.5593C21.9097 18.9325 21.0596 18.5804 20.1733 18.5804C19.287 18.5804 18.437 18.9325 17.8102 19.5593C17.1835 20.186 16.8314 21.036 16.8314 21.9223ZM25.1862 8.55474C25.1862 9.44107 25.5383 10.2911 26.165 10.9178C26.7917 11.5446 27.6417 11.8966 28.5281 11.8966C29.4144 11.8966 30.2644 11.5446 30.8911 10.9178C31.5179 10.2911 31.87 9.44107 31.87 8.55474C31.87 7.66842 31.5179 6.81839 30.8911 6.19166C30.2644 5.56494 29.4144 5.21284 28.5281 5.21284C27.6417 5.21284 26.7917 5.56494 26.165 6.19166C25.5383 6.81839 25.1862 7.66842 25.1862 8.55474ZM8.47667 8.55474C8.47667 9.44107 8.82876 10.2911 9.45548 10.9178C10.0822 11.5446 10.9322 11.8966 11.8186 11.8966C12.7049 11.8966 13.5549 11.5446 14.1816 10.9178C14.8084 10.2911 15.1605 9.44107 15.1605 8.55474C15.1605 7.66842 14.8084 6.81839 14.1816 6.19166C13.5549 5.56494 12.7049 5.21284 11.8186 5.21284C10.9322 5.21284 10.0822 5.56494 9.45548 6.19166C8.82876 6.81839 8.47667 7.66842 8.47667 8.55474Z" stroke="#7259FF" stroke-width="3.3419" stroke-linecap="round" stroke-linejoin="round"/>
</svg>
