<svg width="41" height="41" viewBox="0 0 41 41" fill="none" xmlns="http://www.w3.org/2000/svg">
<path d="M6.13734 15.5123H34.2093M6.13734 25.538H34.2093M19.3378 5.48663C16.5229 9.99755 15.0305 15.208 15.0305 20.5252C15.0305 25.8424 16.5229 31.0528 19.3378 35.5637M21.0088 5.48663C23.8238 9.99755 25.3162 15.208 25.3162 20.5252C25.3162 25.8424 23.8238 31.0528 21.0088 35.5637M5.13477 20.5252C5.13477 22.5001 5.52375 24.4556 6.27951 26.2802C7.03526 28.1047 8.143 29.7626 9.53945 31.159C10.9359 32.5555 12.5937 33.6632 14.4183 34.419C16.2429 35.1747 18.1984 35.5637 20.1733 35.5637C22.1482 35.5637 24.1038 35.1747 25.9283 34.419C27.7529 33.6632 29.4107 32.5555 30.8072 31.159C32.2036 29.7626 33.3114 28.1047 34.0671 26.2802C34.8229 24.4556 35.2119 22.5001 35.2119 20.5252C35.2119 16.5367 33.6274 12.7116 30.8072 9.89132C27.9869 7.07105 24.1618 5.48663 20.1733 5.48663C16.1848 5.48663 12.3597 7.07105 9.53945 9.89132C6.71918 12.7116 5.13477 16.5367 5.13477 20.5252Z" stroke="#7259FF" stroke-width="3.3419" stroke-linecap="round" stroke-linejoin="round"/>
</svg>
